<svg width="16" height="17" viewBox="0 0 16 17" fill="none" xmlns="http://www.w3.org/2000/svg">
<path fill-rule="evenodd" clip-rule="evenodd" d="M3.2679 12.2775C2.9839 11.9185 2.6389 11.1845 2.0249 10.2935C1.6769 9.78947 0.813897 8.84047 0.556897 8.35847C0.333897 7.93247 0.357897 7.74147 0.410897 7.38847C0.504897 6.76047 1.1489 6.27147 1.8359 6.33747C2.3549 6.38647 2.7949 6.72947 3.1909 7.05347C3.4299 7.24847 3.7239 7.62747 3.9009 7.84147C4.0639 8.03747 4.1039 8.11847 4.2779 8.35047C4.5079 8.65747 4.5799 8.80947 4.4919 8.47147C4.4209 7.97547 4.3049 7.12847 4.1369 6.37947C4.0089 5.81147 3.9779 5.72247 3.8559 5.28647C3.7269 4.82247 3.6609 4.49747 3.5399 4.00547C3.4559 3.65747 3.3049 2.94647 3.2639 2.54647C3.2069 1.99947 3.1769 1.10747 3.5279 0.697471C3.8029 0.376471 4.4339 0.279471 4.8249 0.477471C5.3369 0.736471 5.6279 1.48047 5.7609 1.77747C5.9999 2.31147 6.1479 2.92847 6.2769 3.73847C6.4409 4.76947 6.7429 6.20047 6.7529 6.50147C6.7769 6.13247 6.6849 5.35547 6.7489 5.00147C6.8069 4.68047 7.0769 4.30747 7.4149 4.20647C7.7009 4.12147 8.0359 4.09047 8.3309 4.15147C8.6429 4.21547 8.9739 4.43947 9.0969 4.65047C9.4589 5.27447 9.4659 6.54947 9.4809 6.48147C9.5669 6.10547 9.5519 5.25247 9.7649 4.89747C9.9049 4.66347 10.2619 4.45247 10.4519 4.41847C10.7459 4.36647 11.1069 4.35047 11.4159 4.41047C11.6649 4.45947 12.0019 4.75547 12.0929 4.89747C12.3099 5.24147 12.4349 6.21447 12.4719 6.55547C12.4869 6.69647 12.5459 6.16347 12.7649 5.81947C13.1709 5.18047 14.6079 5.05647 14.6629 6.45847C14.6879 7.11247 14.6829 7.08247 14.6829 7.52247C14.6829 8.03947 14.6709 8.35047 14.6429 8.72447C14.6119 9.12447 14.5259 10.0285 14.4009 10.4665C14.3149 10.7675 14.0299 11.4445 13.7489 11.8505C13.7489 11.8505 12.6749 13.1005 12.5579 13.6635C12.4399 14.2255 12.4789 14.2295 12.4559 14.6285C12.4329 15.0265 12.5769 15.5505 12.5769 15.5505C12.5769 15.5505 11.7749 15.6545 11.3429 15.5855C10.9519 15.5225 10.4679 14.7445 10.3429 14.5065C10.1709 14.1785 9.8039 14.2415 9.6609 14.4835C9.4349 14.8665 8.9519 15.5535 8.6099 15.5965C7.9419 15.6805 6.5559 15.6275 5.4709 15.6165C5.4709 15.6165 5.6559 14.6055 5.2439 14.2585C4.9389 13.9995 4.4139 13.4745 4.0999 13.1985L3.2679 12.2775Z" fill="white"/>
<path fill-rule="evenodd" clip-rule="evenodd" d="M3.2679 12.2775C2.9839 11.9185 2.6389 11.1845 2.0249 10.2935C1.6769 9.78947 0.813897 8.84047 0.556897 8.35847C0.333897 7.93247 0.357897 7.74147 0.410897 7.38847C0.504897 6.76047 1.1489 6.27147 1.8359 6.33747C2.3549 6.38647 2.7949 6.72947 3.1909 7.05347C3.4299 7.24847 3.7239 7.62747 3.9009 7.84147C4.0639 8.03747 4.1039 8.11847 4.2779 8.35047C4.5079 8.65747 4.5799 8.80947 4.4919 8.47147C4.4209 7.97547 4.3049 7.12847 4.1369 6.37947C4.0089 5.81147 3.9779 5.72247 3.8559 5.28647C3.7269 4.82247 3.6609 4.49747 3.5399 4.00547C3.4559 3.65747 3.3049 2.94647 3.2639 2.54647C3.2069 1.99947 3.1769 1.10747 3.5279 0.697471C3.8029 0.376471 4.4339 0.279471 4.8249 0.477471C5.3369 0.736471 5.6279 1.48047 5.7609 1.77747C5.9999 2.31147 6.1479 2.92847 6.2769 3.73847C6.4409 4.76947 6.7429 6.20047 6.7529 6.50147C6.7769 6.13247 6.6849 5.35547 6.7489 5.00147C6.8069 4.68047 7.0769 4.30747 7.4149 4.20647C7.7009 4.12147 8.0359 4.09047 8.3309 4.15147C8.6429 4.21547 8.9739 4.43947 9.0969 4.65047C9.4589 5.27447 9.4659 6.54947 9.4809 6.48147C9.5669 6.10547 9.5519 5.25247 9.7649 4.89747C9.9049 4.66347 10.2619 4.45247 10.4519 4.41847C10.7459 4.36647 11.1069 4.35047 11.4159 4.41047C11.6649 4.45947 12.0019 4.75547 12.0929 4.89747C12.3099 5.24147 12.4349 6.21447 12.4719 6.55547C12.4869 6.69647 12.5459 6.16347 12.7649 5.81947C13.1709 5.18047 14.6079 5.05647 14.6629 6.45847C14.6879 7.11247 14.6829 7.08247 14.6829 7.52247C14.6829 8.03947 14.6709 8.35047 14.6429 8.72447C14.6119 9.12447 14.5259 10.0285 14.4009 10.4665C14.3149 10.7675 14.0299 11.4445 13.7489 11.8505C13.7489 11.8505 12.6749 13.1005 12.5579 13.6635C12.4399 14.2255 12.4789 14.2295 12.4559 14.6285C12.4329 15.0265 12.5769 15.5505 12.5769 15.5505C12.5769 15.5505 11.7749 15.6545 11.3429 15.5855C10.9519 15.5225 10.4679 14.7445 10.3429 14.5065C10.1709 14.1785 9.8039 14.2415 9.6609 14.4835C9.4349 14.8665 8.9519 15.5535 8.6099 15.5965C7.9419 15.6805 6.5559 15.6275 5.4709 15.6165C5.4709 15.6165 5.6559 14.6055 5.2439 14.2585C4.9389 13.9995 4.4139 13.4745 4.0999 13.1985L3.2679 12.2775Z" stroke="black" stroke-width="0.75" stroke-linecap="round" stroke-linejoin="round"/>
<path d="M11.5028 12.632V9.17297" stroke="black" stroke-width="0.75" stroke-linecap="round"/>
<path d="M9.48719 12.6437L9.47119 9.17072" stroke="black" stroke-width="0.75" stroke-linecap="round"/>
<path d="M7.49109 9.20227L7.51209 12.6283" stroke="black" stroke-width="0.75" stroke-linecap="round"/>
</svg>
